<svg width="42" height="45" viewBox="0 0 42 45" fill="none" xmlns="http://www.w3.org/2000/svg">
<path d="M31 16.3333H35.3334V10.2083H41.8334V6.125H35.3334V0H31V6.125H24.5V10.2083H31V16.3333ZM18 24.5C19.1917 24.5 20.2122 24.0998 21.0615 23.2995C21.9094 22.5005 22.3334 21.5396 22.3334 20.4167C22.3334 19.2938 21.9094 18.3321 21.0615 17.5318C20.2122 16.7328 19.1917 16.3333 18 16.3333C16.8084 16.3333 15.7886 16.7328 14.9407 17.5318C14.0914 18.3321 13.6667 19.2938 13.6667 20.4167C13.6667 21.5396 14.0914 22.5005 14.9407 23.2995C15.7886 24.0998 16.8084 24.5 18 24.5ZM18 44.9167C12.1861 40.2549 7.84413 35.9245 4.97402 31.9255C2.10246 27.928 0.666687 24.2278 0.666687 20.825C0.666687 15.7208 2.40941 11.6545 5.89485 8.62604C9.37885 5.59757 13.4139 4.08333 18 4.08333C18.3611 4.08333 18.7222 4.0915 19.0834 4.10783C19.4445 4.12553 19.8056 4.15139 20.1667 4.18542V8.31979C19.8056 8.25174 19.4531 8.20886 19.1094 8.19117C18.767 8.17483 18.3972 8.16667 18 8.16667C14.3528 8.16667 11.274 9.34879 8.76352 11.713C6.25452 14.0787 5.00002 17.116 5.00002 20.825C5.00002 23.241 6.0653 26.0054 8.19585 29.1183C10.3264 32.2325 13.5945 35.6951 18 39.5063C22.4056 35.6951 25.6736 32.2325 27.8042 29.1183C29.9347 26.0054 31 23.241 31 20.825V20.4167H35.3334V20.825C35.3334 24.2278 33.8983 27.928 31.0282 31.9255C28.1566 35.9245 23.8139 40.2549 18 44.9167Z" fill="#1C1B1F"/>
</svg>
