<svg width="35" height="34" viewBox="0 0 35 34" fill="none" xmlns="http://www.w3.org/2000/svg">
<path d="M5.97414 28.992V31.0346C5.97414 31.6133 5.79296 32.0981 5.43059 32.4889C5.06696 32.8811 4.61684 33.0772 4.08023 33.0772H2.18633C1.64972 33.0772 1.20023 32.8811 0.837865 32.4889C0.474235 32.0981 0.292419 31.6133 0.292419 31.0346V14.6942L4.26962 2.43883C4.45902 1.82606 4.79866 1.33244 5.28855 0.957974C5.77717 0.583505 6.32136 0.396271 6.92109 0.396271H27.7541C28.3538 0.396271 28.8986 0.583505 29.3885 0.957974C29.8771 1.33244 30.2162 1.82606 30.4055 2.43883L34.3828 14.6942V31.0346C34.3828 31.6133 34.2009 32.0981 33.8373 32.4889C33.4749 32.8811 33.0255 33.0772 32.4888 33.0772H30.5949C30.0583 33.0772 29.6088 32.8811 29.2465 32.4889C28.8828 32.0981 28.701 31.6133 28.701 31.0346V28.992H5.97414ZM5.59536 10.609H29.0798L27.0912 4.48138H7.58396L5.59536 10.609ZM8.815 22.8644C9.60413 22.8644 10.2746 22.5662 10.8263 21.9697C11.3794 21.3747 11.6559 20.6516 11.6559 19.8005C11.6559 18.9495 11.3794 18.2264 10.8263 17.6313C10.2746 17.0349 9.60413 16.7367 8.815 16.7367C8.02587 16.7367 7.35543 17.0349 6.80367 17.6313C6.25065 18.2264 5.97414 18.9495 5.97414 19.8005C5.97414 20.6516 6.25065 21.3747 6.80367 21.9697C7.35543 22.5662 8.02587 22.8644 8.815 22.8644ZM25.8602 22.8644C26.6493 22.8644 27.3197 22.5662 27.8715 21.9697C28.4245 21.3747 28.701 20.6516 28.701 19.8005C28.701 18.9495 28.4245 18.2264 27.8715 17.6313C27.3197 17.0349 26.6493 16.7367 25.8602 16.7367C25.071 16.7367 24.4006 17.0349 23.8488 17.6313C23.2958 18.2264 23.0193 18.9495 23.0193 19.8005C23.0193 20.6516 23.2958 21.3747 23.8488 21.9697C24.4006 22.5662 25.071 22.8644 25.8602 22.8644Z" fill="#1C1B1F"/>
</svg>
