<?xml version="1.0" encoding="utf-8"?>
<!-- Svg Vector Icons : http://www.onlinewebfonts.com/icon -->
<!DOCTYPE svg PUBLIC "-//W3C//DTD SVG 1.1//EN" "http://www.w3.org/Graphics/SVG/1.1/DTD/svg11.dtd">
<svg version="1.1" xmlns="http://www.w3.org/2000/svg" xmlns:xlink="http://www.w3.org/1999/xlink" x="0px" y="0px" viewBox="0 0 1000 1000" enable-background="new 0 0 1000 1000" xml:space="preserve">
<metadata> Svg Vector Icons : http://www.onlinewebfonts.com/icon </metadata>
<g><path d="M381.4,242.3c64.1,0,116.1-52,116.1-116.1C497.6,62,445.6,10,381.4,10c-64.2,0-116.2,52-116.2,116.1C265.3,190.3,317.3,242.3,381.4,242.3z M729.5,507.2H548.6l-52.5-161.3c-31-136.7-223.8-96.1-202.9,37.6L354,561.1c9.2,45.7,45.7,77.1,104.1,77.1c0,0,209-7.9,224.1,7.3c5.9,5.9,6.8,197.2,6.8,278.4c0,87.6,127.4,88,127.4,1.6V595.7C816.5,553.4,786.7,507.2,729.5,507.2z M601.6,670.4H451.9c-89.8,0-103.2-14.4-123.6-101.9c-15-64.7-53.1-133.7-53.1-133.7c-13.1-63.2-102-42.6-90.7,19.1c0,0,40.9,77.7,56,145.5c34.1,153.4,49.9,167.1,197.3,167.1c45,0,164.7,0,164.7,0C666.3,766.5,666.7,670.4,601.6,670.4z"/></g>
</svg>