<svg width="52" height="36" viewBox="0 0 52 36" fill="none" xmlns="http://www.w3.org/2000/svg">
<path d="M26 35.8333C24.1333 34.6986 22.1111 33.8177 19.9333 33.1906C17.7555 32.5635 15.5 32.25 13.1666 32.25C11.5333 32.25 9.92954 32.4142 8.35531 32.7427C6.77954 33.0712 5.2722 33.534 3.83331 34.1312C3.01665 34.4597 2.22954 34.4448 1.47198 34.0864C0.712869 33.7281 0.333313 33.2055 0.333313 32.5187V10.9291C0.333313 10.6007 0.440646 10.2871 0.655313 9.98852C0.868424 9.68991 1.18887 9.46595 1.61665 9.31665C3.40553 8.59998 5.2722 8.06248 7.21665 7.70415C9.16109 7.34581 11.1444 7.16665 13.1666 7.16665C15.4222 7.16665 17.6295 7.3906 19.7886 7.83852C21.9462 8.28644 24.0166 8.95831 26 9.85415V31.5333C27.9833 30.5778 30.0639 29.8611 32.2416 29.3833C34.4194 28.9055 36.6166 28.6666 38.8333 28.6666C40.2333 28.6666 41.6045 28.7562 42.947 28.9354C44.2879 29.1146 45.6389 29.3833 47 29.7416V8.24165C47.5833 8.39095 48.1573 8.54742 48.722 8.71106C49.2851 8.8759 49.8389 9.07776 50.3833 9.31665C50.8111 9.46595 51.1323 9.68991 51.347 9.98852C51.5601 10.2871 51.6666 10.6007 51.6666 10.9291V32.5187C51.6666 33.2055 51.2879 33.7281 50.5303 34.0864C49.7712 34.4448 48.9833 34.4597 48.1666 34.1312C46.7278 33.534 45.2204 33.0712 43.6446 32.7427C42.0704 32.4142 40.4666 32.25 38.8333 32.25C36.5 32.25 34.2444 32.5635 32.0666 33.1906C29.8889 33.8177 27.8666 34.6986 26 35.8333ZM30.6666 26.875V9.85415L42.3333 0.895813V18.8125L30.6666 26.875ZM21.3333 29.7864V12.0489C20.05 11.6309 18.7184 11.3102 17.3386 11.0868C15.9573 10.8623 14.5666 10.75 13.1666 10.75C11.7278 10.75 10.3278 10.8545 8.96665 11.0635C7.60553 11.2725 6.28331 11.5861 4.99998 12.0041V29.7864C6.36109 29.3982 7.71287 29.1146 9.05531 28.9354C10.3962 28.7562 11.7666 28.6666 13.1666 28.6666C14.5666 28.6666 15.9371 28.7562 17.278 28.9354C18.6204 29.1146 19.9722 29.3982 21.3333 29.7864Z" fill="#1C1B1F"/>
</svg>
